<?xml version="1.0" encoding="UTF-8" standalone="no"?>
<!DOCTYPE svg PUBLIC "-//W3C//DTD SVG 1.1//EN" "http://www.w3.org/Graphics/SVG/1.1/DTD/svg11.dtd">
<svg width="100%" height="100%" viewBox="0 0 1024 600" version="1.1" xmlns="http://www.w3.org/2000/svg" xmlns:xlink="http://www.w3.org/1999/xlink" xml:space="preserve" xmlns:serif="http://www.serif.com/" style="fill-rule:evenodd;clip-rule:evenodd;stroke-linejoin:round;stroke-miterlimit:2;">
    <g transform="matrix(3.60273,0,0,2.4357,-707.675,-264.629)">
        <path d="M218.564,261.091C218.824,267.946 219.917,273.512 221.845,277.789C225.516,285.795 231.985,289.798 241.254,289.798C245.406,289.798 249.188,288.921 252.598,287.166C259.198,283.766 262.497,277.679 262.497,268.905C262.497,262.325 261.107,257.636 258.326,254.839C255.509,252.097 251.097,249.712 245.091,247.683L234.024,243.981C226.795,241.569 221.679,238.909 218.676,236.002C213.485,230.957 210.89,223.417 210.89,213.382C210.89,202.524 213.43,193.613 218.509,186.648C223.588,179.684 230.78,176.202 240.086,176.202C248.65,176.202 255.926,179.259 261.913,185.373C267.901,191.488 270.895,201.263 270.895,214.698L260.495,214.698C259.939,208.227 258.753,203.264 256.936,199.809C253.562,193.503 247.834,190.35 239.752,190.35C233.227,190.35 228.537,192.379 225.683,196.437C222.828,200.495 221.4,205.211 221.4,210.585C221.4,216.508 223.069,220.84 226.405,223.582C228.593,225.336 233.542,227.53 241.254,230.162L252.71,234.028C258.234,235.893 262.497,238.443 265.5,241.678C270.691,247.327 273.286,255.525 273.286,266.273C273.286,279.653 269.996,289.223 263.415,294.981C256.834,300.739 249.188,303.618 240.475,303.618C230.317,303.618 222.364,299.779 216.618,292.102C210.871,284.479 208.054,274.142 208.165,261.091L218.564,261.091Z" style="fill:rgb(202,0,255);fill-rule:nonzero;"/>
        <rect x="289.802" y="179.245" width="11.178" height="120.835" style="fill:rgb(202,0,255);fill-rule:nonzero;"/>
        <path d="M326.172,261.091C326.432,267.946 327.526,273.512 329.453,277.789C333.124,285.795 339.593,289.798 348.862,289.798C353.014,289.798 356.796,288.921 360.206,287.166C366.806,283.766 370.105,277.679 370.105,268.905C370.105,262.325 368.715,257.636 365.934,254.839C363.117,252.097 358.705,249.712 352.699,247.683L341.632,243.981C334.403,241.569 329.287,238.909 326.284,236.002C321.093,230.957 318.498,223.417 318.498,213.382C318.498,202.524 321.038,193.613 326.117,186.648C331.196,179.684 338.388,176.202 347.694,176.202C356.258,176.202 363.534,179.259 369.521,185.373C375.509,191.488 378.503,201.263 378.503,214.698L368.103,214.698C367.547,208.227 366.361,203.264 364.544,199.809C361.17,193.503 355.442,190.35 347.36,190.35C340.835,190.35 336.145,192.379 333.291,196.437C330.436,200.495 329.008,205.211 329.008,210.585C329.008,216.508 330.677,220.84 334.014,223.582C336.201,225.336 341.15,227.53 348.862,230.162L360.318,234.028C365.842,235.893 370.105,238.443 373.108,241.678C378.299,247.327 380.894,255.525 380.894,266.273C380.894,279.653 377.604,289.223 371.023,294.981C364.442,300.739 356.796,303.618 348.083,303.618C337.925,303.618 329.972,299.779 324.226,292.102C318.479,284.479 315.662,274.142 315.773,261.091L326.172,261.091Z" style="fill:rgb(202,0,255);fill-rule:nonzero;"/>
        <path d="M406.92,179.245L406.92,253.934C406.92,262.709 408.032,270.002 410.257,275.815C413.556,284.589 419.117,288.976 426.94,288.976C436.32,288.976 442.697,284.232 446.07,274.745C447.887,269.591 448.795,262.654 448.795,253.934L448.795,179.245L460.029,179.245L460.029,247.107C460.029,261.968 458.676,273.402 455.969,281.408C451.001,295.995 441.622,303.289 427.83,303.289C414.038,303.289 404.677,295.995 399.746,281.408C397.04,273.402 395.687,261.968 395.687,247.107L395.687,179.245L406.92,179.245Z" style="fill:rgb(202,0,255);fill-rule:nonzero;"/>
    </g>
    <g transform="matrix(3.60273,0,0,2.4357,-707.675,-247.629)">
        <path d="M218.564,261.091C218.824,267.946 219.917,273.512 221.845,277.789C225.516,285.795 231.985,289.798 241.254,289.798C245.406,289.798 249.188,288.921 252.598,287.166C259.198,283.766 262.497,277.679 262.497,268.905C262.497,262.325 261.107,257.636 258.326,254.839C255.509,252.097 251.097,249.712 245.091,247.683L234.024,243.981C226.795,241.569 221.679,238.909 218.676,236.002C213.485,230.957 210.89,223.417 210.89,213.382C210.89,202.524 213.43,193.613 218.509,186.648C223.588,179.684 230.78,176.202 240.086,176.202C248.65,176.202 255.926,179.259 261.913,185.373C267.901,191.488 270.895,201.263 270.895,214.698L260.495,214.698C259.939,208.227 258.753,203.264 256.936,199.809C253.562,193.503 247.834,190.35 239.752,190.35C233.227,190.35 228.537,192.379 225.683,196.437C222.828,200.495 221.4,205.211 221.4,210.585C221.4,216.508 223.069,220.84 226.405,223.582C228.593,225.336 233.542,227.53 241.254,230.162L252.71,234.028C258.234,235.893 262.497,238.443 265.5,241.678C270.691,247.327 273.286,255.525 273.286,266.273C273.286,279.653 269.996,289.223 263.415,294.981C256.834,300.739 249.188,303.618 240.475,303.618C230.317,303.618 222.364,299.779 216.618,292.102C210.871,284.479 208.054,274.142 208.165,261.091L218.564,261.091Z" style="fill:rgb(63,0,155);fill-rule:nonzero;"/>
        <rect x="289.802" y="179.245" width="11.178" height="120.835" style="fill:rgb(63,0,155);fill-rule:nonzero;"/>
        <path d="M326.172,261.091C326.432,267.946 327.526,273.512 329.453,277.789C333.124,285.795 339.593,289.798 348.862,289.798C353.014,289.798 356.796,288.921 360.206,287.166C366.806,283.766 370.105,277.679 370.105,268.905C370.105,262.325 368.715,257.636 365.934,254.839C363.117,252.097 358.705,249.712 352.699,247.683L341.632,243.981C334.403,241.569 329.287,238.909 326.284,236.002C321.093,230.957 318.498,223.417 318.498,213.382C318.498,202.524 321.038,193.613 326.117,186.648C331.196,179.684 338.388,176.202 347.694,176.202C356.258,176.202 363.534,179.259 369.521,185.373C375.509,191.488 378.503,201.263 378.503,214.698L368.103,214.698C367.547,208.227 366.361,203.264 364.544,199.809C361.17,193.503 355.442,190.35 347.36,190.35C340.835,190.35 336.145,192.379 333.291,196.437C330.436,200.495 329.008,205.211 329.008,210.585C329.008,216.508 330.677,220.84 334.014,223.582C336.201,225.336 341.15,227.53 348.862,230.162L360.318,234.028C365.842,235.893 370.105,238.443 373.108,241.678C378.299,247.327 380.894,255.525 380.894,266.273C380.894,279.653 377.604,289.223 371.023,294.981C364.442,300.739 356.796,303.618 348.083,303.618C337.925,303.618 329.972,299.779 324.226,292.102C318.479,284.479 315.662,274.142 315.773,261.091L326.172,261.091Z" style="fill:rgb(63,0,155);fill-rule:nonzero;"/>
        <path d="M406.92,179.245L406.92,253.934C406.92,262.709 408.032,270.002 410.257,275.815C413.556,284.589 419.117,288.976 426.94,288.976C436.32,288.976 442.697,284.232 446.07,274.745C447.887,269.591 448.795,262.654 448.795,253.934L448.795,179.245L460.029,179.245L460.029,247.107C460.029,261.968 458.676,273.402 455.969,281.408C451.001,295.995 441.622,303.289 427.83,303.289C414.038,303.289 404.677,295.995 399.746,281.408C397.04,273.402 395.687,261.968 395.687,247.107L395.687,179.245L406.92,179.245Z" style="fill:rgb(63,0,155);fill-rule:nonzero;"/>
    </g>
    <g transform="matrix(3.60273,0,0,2.4357,-700.675,-255.629)">
        <path d="M218.564,261.091C218.824,267.946 219.917,273.512 221.845,277.789C225.516,285.795 231.985,289.798 241.254,289.798C245.406,289.798 249.188,288.921 252.598,287.166C259.198,283.766 262.497,277.679 262.497,268.905C262.497,262.325 261.107,257.636 258.326,254.839C255.509,252.097 251.097,249.712 245.091,247.683L234.024,243.981C226.795,241.569 221.679,238.909 218.676,236.002C213.485,230.957 210.89,223.417 210.89,213.382C210.89,202.524 213.43,193.613 218.509,186.648C223.588,179.684 230.78,176.202 240.086,176.202C248.65,176.202 255.926,179.259 261.913,185.373C267.901,191.488 270.895,201.263 270.895,214.698L260.495,214.698C259.939,208.227 258.753,203.264 256.936,199.809C253.562,193.503 247.834,190.35 239.752,190.35C233.227,190.35 228.537,192.379 225.683,196.437C222.828,200.495 221.4,205.211 221.4,210.585C221.4,216.508 223.069,220.84 226.405,223.582C228.593,225.336 233.542,227.53 241.254,230.162L252.71,234.028C258.234,235.893 262.497,238.443 265.5,241.678C270.691,247.327 273.286,255.525 273.286,266.273C273.286,279.653 269.996,289.223 263.415,294.981C256.834,300.739 249.188,303.618 240.475,303.618C230.317,303.618 222.364,299.779 216.618,292.102C210.871,284.479 208.054,274.142 208.165,261.091L218.564,261.091Z" style="fill:rgb(253,0,189);fill-rule:nonzero;"/>
        <rect x="289.802" y="179.245" width="11.178" height="120.835" style="fill:rgb(253,0,189);fill-rule:nonzero;"/>
        <path d="M326.172,261.091C326.432,267.946 327.526,273.512 329.453,277.789C333.124,285.795 339.593,289.798 348.862,289.798C353.014,289.798 356.796,288.921 360.206,287.166C366.806,283.766 370.105,277.679 370.105,268.905C370.105,262.325 368.715,257.636 365.934,254.839C363.117,252.097 358.705,249.712 352.699,247.683L341.632,243.981C334.403,241.569 329.287,238.909 326.284,236.002C321.093,230.957 318.498,223.417 318.498,213.382C318.498,202.524 321.038,193.613 326.117,186.648C331.196,179.684 338.388,176.202 347.694,176.202C356.258,176.202 363.534,179.259 369.521,185.373C375.509,191.488 378.503,201.263 378.503,214.698L368.103,214.698C367.547,208.227 366.361,203.264 364.544,199.809C361.17,193.503 355.442,190.35 347.36,190.35C340.835,190.35 336.145,192.379 333.291,196.437C330.436,200.495 329.008,205.211 329.008,210.585C329.008,216.508 330.677,220.84 334.014,223.582C336.201,225.336 341.15,227.53 348.862,230.162L360.318,234.028C365.842,235.893 370.105,238.443 373.108,241.678C378.299,247.327 380.894,255.525 380.894,266.273C380.894,279.653 377.604,289.223 371.023,294.981C364.442,300.739 356.796,303.618 348.083,303.618C337.925,303.618 329.972,299.779 324.226,292.102C318.479,284.479 315.662,274.142 315.773,261.091L326.172,261.091Z" style="fill:rgb(253,0,189);fill-rule:nonzero;"/>
        <path d="M406.92,179.245L406.92,253.934C406.92,262.709 408.032,270.002 410.257,275.815C413.556,284.589 419.117,288.976 426.94,288.976C436.32,288.976 442.697,284.232 446.07,274.745C447.887,269.591 448.795,262.654 448.795,253.934L448.795,179.245L460.029,179.245L460.029,247.107C460.029,261.968 458.676,273.402 455.969,281.408C451.001,295.995 441.622,303.289 427.83,303.289C414.038,303.289 404.677,295.995 399.746,281.408C397.04,273.402 395.687,261.968 395.687,247.107L395.687,179.245L406.92,179.245Z" style="fill:rgb(253,0,189);fill-rule:nonzero;"/>
    </g>
    <g transform="matrix(3.60273,0,0,2.4357,-715.675,-255.629)">
        <path d="M218.564,261.091C218.824,267.946 219.917,273.512 221.845,277.789C225.516,285.795 231.985,289.798 241.254,289.798C245.406,289.798 249.188,288.921 252.598,287.166C259.198,283.766 262.497,277.679 262.497,268.905C262.497,262.325 261.107,257.636 258.326,254.839C255.509,252.097 251.097,249.712 245.091,247.683L234.024,243.981C226.795,241.569 221.679,238.909 218.676,236.002C213.485,230.957 210.89,223.417 210.89,213.382C210.89,202.524 213.43,193.613 218.509,186.648C223.588,179.684 230.78,176.202 240.086,176.202C248.65,176.202 255.926,179.259 261.913,185.373C267.901,191.488 270.895,201.263 270.895,214.698L260.495,214.698C259.939,208.227 258.753,203.264 256.936,199.809C253.562,193.503 247.834,190.35 239.752,190.35C233.227,190.35 228.537,192.379 225.683,196.437C222.828,200.495 221.4,205.211 221.4,210.585C221.4,216.508 223.069,220.84 226.405,223.582C228.593,225.336 233.542,227.53 241.254,230.162L252.71,234.028C258.234,235.893 262.497,238.443 265.5,241.678C270.691,247.327 273.286,255.525 273.286,266.273C273.286,279.653 269.996,289.223 263.415,294.981C256.834,300.739 249.188,303.618 240.475,303.618C230.317,303.618 222.364,299.779 216.618,292.102C210.871,284.479 208.054,274.142 208.165,261.091L218.564,261.091Z" style="fill:rgb(86,194,255);fill-rule:nonzero;"/>
        <rect x="289.802" y="179.245" width="11.178" height="120.835" style="fill:rgb(86,194,255);fill-rule:nonzero;"/>
        <path d="M326.172,261.091C326.432,267.946 327.526,273.512 329.453,277.789C333.124,285.795 339.593,289.798 348.862,289.798C353.014,289.798 356.796,288.921 360.206,287.166C366.806,283.766 370.105,277.679 370.105,268.905C370.105,262.325 368.715,257.636 365.934,254.839C363.117,252.097 358.705,249.712 352.699,247.683L341.632,243.981C334.403,241.569 329.287,238.909 326.284,236.002C321.093,230.957 318.498,223.417 318.498,213.382C318.498,202.524 321.038,193.613 326.117,186.648C331.196,179.684 338.388,176.202 347.694,176.202C356.258,176.202 363.534,179.259 369.521,185.373C375.509,191.488 378.503,201.263 378.503,214.698L368.103,214.698C367.547,208.227 366.361,203.264 364.544,199.809C361.17,193.503 355.442,190.35 347.36,190.35C340.835,190.35 336.145,192.379 333.291,196.437C330.436,200.495 329.008,205.211 329.008,210.585C329.008,216.508 330.677,220.84 334.014,223.582C336.201,225.336 341.15,227.53 348.862,230.162L360.318,234.028C365.842,235.893 370.105,238.443 373.108,241.678C378.299,247.327 380.894,255.525 380.894,266.273C380.894,279.653 377.604,289.223 371.023,294.981C364.442,300.739 356.796,303.618 348.083,303.618C337.925,303.618 329.972,299.779 324.226,292.102C318.479,284.479 315.662,274.142 315.773,261.091L326.172,261.091Z" style="fill:rgb(86,194,255);fill-rule:nonzero;"/>
        <path d="M406.92,179.245L406.92,253.934C406.92,262.709 408.032,270.002 410.257,275.815C413.556,284.589 419.117,288.976 426.94,288.976C436.32,288.976 442.697,284.232 446.07,274.745C447.887,269.591 448.795,262.654 448.795,253.934L448.795,179.245L460.029,179.245L460.029,247.107C460.029,261.968 458.676,273.402 455.969,281.408C451.001,295.995 441.622,303.289 427.83,303.289C414.038,303.289 404.677,295.995 399.746,281.408C397.04,273.402 395.687,261.968 395.687,247.107L395.687,179.245L406.92,179.245Z" style="fill:rgb(86,194,255);fill-rule:nonzero;"/>
    </g>
    <g transform="matrix(3.60273,0,0,2.4357,-708.675,-255.629)">
        <path d="M218.564,261.091C218.824,267.946 219.917,273.512 221.845,277.789C225.516,285.795 231.985,289.798 241.254,289.798C245.406,289.798 249.188,288.921 252.598,287.166C259.198,283.766 262.497,277.679 262.497,268.905C262.497,262.325 261.107,257.636 258.326,254.839C255.509,252.097 251.097,249.712 245.091,247.683L234.024,243.981C226.795,241.569 221.679,238.909 218.676,236.002C213.485,230.957 210.89,223.417 210.89,213.382C210.89,202.524 213.43,193.613 218.509,186.648C223.588,179.684 230.78,176.202 240.086,176.202C248.65,176.202 255.926,179.259 261.913,185.373C267.901,191.488 270.895,201.263 270.895,214.698L260.495,214.698C259.939,208.227 258.753,203.264 256.936,199.809C253.562,193.503 247.834,190.35 239.752,190.35C233.227,190.35 228.537,192.379 225.683,196.437C222.828,200.495 221.4,205.211 221.4,210.585C221.4,216.508 223.069,220.84 226.405,223.582C228.593,225.336 233.542,227.53 241.254,230.162L252.71,234.028C258.234,235.893 262.497,238.443 265.5,241.678C270.691,247.327 273.286,255.525 273.286,266.273C273.286,279.653 269.996,289.223 263.415,294.981C256.834,300.739 249.188,303.618 240.475,303.618C230.317,303.618 222.364,299.779 216.618,292.102C210.871,284.479 208.054,274.142 208.165,261.091L218.564,261.091Z" style="fill:white;fill-rule:nonzero;"/>
        <rect x="289.802" y="179.245" width="11.178" height="120.835" style="fill:white;fill-rule:nonzero;"/>
        <path d="M326.172,261.091C326.432,267.946 327.526,273.512 329.453,277.789C333.124,285.795 339.593,289.798 348.862,289.798C353.014,289.798 356.796,288.921 360.206,287.166C366.806,283.766 370.105,277.679 370.105,268.905C370.105,262.325 368.715,257.636 365.934,254.839C363.117,252.097 358.705,249.712 352.699,247.683L341.632,243.981C334.403,241.569 329.287,238.909 326.284,236.002C321.093,230.957 318.498,223.417 318.498,213.382C318.498,202.524 321.038,193.613 326.117,186.648C331.196,179.684 338.388,176.202 347.694,176.202C356.258,176.202 363.534,179.259 369.521,185.373C375.509,191.488 378.503,201.263 378.503,214.698L368.103,214.698C367.547,208.227 366.361,203.264 364.544,199.809C361.17,193.503 355.442,190.35 347.36,190.35C340.835,190.35 336.145,192.379 333.291,196.437C330.436,200.495 329.008,205.211 329.008,210.585C329.008,216.508 330.677,220.84 334.014,223.582C336.201,225.336 341.15,227.53 348.862,230.162L360.318,234.028C365.842,235.893 370.105,238.443 373.108,241.678C378.299,247.327 380.894,255.525 380.894,266.273C380.894,279.653 377.604,289.223 371.023,294.981C364.442,300.739 356.796,303.618 348.083,303.618C337.925,303.618 329.972,299.779 324.226,292.102C318.479,284.479 315.662,274.142 315.773,261.091L326.172,261.091Z" style="fill:white;fill-rule:nonzero;"/>
        <path d="M406.92,179.245L406.92,253.934C406.92,262.709 408.032,270.002 410.257,275.815C413.556,284.589 419.117,288.976 426.94,288.976C436.32,288.976 442.697,284.232 446.07,274.745C447.887,269.591 448.795,262.654 448.795,253.934L448.795,179.245L460.029,179.245L460.029,247.107C460.029,261.968 458.676,273.402 455.969,281.408C451.001,295.995 441.622,303.289 427.83,303.289C414.038,303.289 404.677,295.995 399.746,281.408C397.04,273.402 395.687,261.968 395.687,247.107L395.687,179.245L406.92,179.245Z" style="fill:white;fill-rule:nonzero;"/>
    </g>
</svg>
